<mxfile host="Electron" agent="Mozilla/5.0 (Windows NT 10.0; Win64; x64) AppleWebKit/537.36 (KHTML, like Gecko) draw.io/25.0.2 Chrome/128.0.6613.186 Electron/32.2.5 Safari/537.36" version="25.0.2">
  <diagram name="Страница — 1" id="phGW3RdwsR2yTIJym5XX">
    <mxGraphModel dx="1863" dy="606" grid="1" gridSize="10" guides="1" tooltips="1" connect="1" arrows="1" fold="1" page="1" pageScale="1" pageWidth="827" pageHeight="1169" math="0" shadow="0">
      <root>
        <mxCell id="0" />
        <mxCell id="1" parent="0" />
        <mxCell id="W7dTlUxyJdRYd5BLlbY7-1" value="" style="shape=table;startSize=0;container=1;collapsible=0;childLayout=tableLayout;" parent="1" vertex="1">
          <mxGeometry y="240" width="940" height="100" as="geometry" />
        </mxCell>
        <mxCell id="W7dTlUxyJdRYd5BLlbY7-2" value="" style="shape=tableRow;horizontal=0;startSize=0;swimlaneHead=0;swimlaneBody=0;strokeColor=inherit;top=0;left=0;bottom=0;right=0;collapsible=0;dropTarget=0;fillColor=none;points=[[0,0.5],[1,0.5]];portConstraint=eastwest;" parent="W7dTlUxyJdRYd5BLlbY7-1" vertex="1">
          <mxGeometry width="940" height="40" as="geometry" />
        </mxCell>
        <mxCell id="VQXqekZz1te2qqjNtkpb-38" value="&lt;font color=&quot;#0a0300&quot; style=&quot;font-size: 14px; background-color: rgb(255, 255, 255);&quot;&gt;Название QUERY параметра&lt;/font&gt;" style="shape=partialRectangle;html=1;whiteSpace=wrap;connectable=0;strokeColor=inherit;overflow=hidden;fillColor=none;top=0;left=0;bottom=0;right=0;pointerEvents=1;" vertex="1" parent="W7dTlUxyJdRYd5BLlbY7-2">
          <mxGeometry width="327" height="40" as="geometry">
            <mxRectangle width="327" height="40" as="alternateBounds" />
          </mxGeometry>
        </mxCell>
        <mxCell id="W7dTlUxyJdRYd5BLlbY7-3" value="&lt;font color=&quot;#0a0300&quot; style=&quot;font-size: 14px; background-color: rgb(255, 255, 255);&quot;&gt;Принадлежность&lt;/font&gt;" style="shape=partialRectangle;html=1;whiteSpace=wrap;connectable=0;strokeColor=inherit;overflow=hidden;fillColor=none;top=0;left=0;bottom=0;right=0;pointerEvents=1;" parent="W7dTlUxyJdRYd5BLlbY7-2" vertex="1">
          <mxGeometry x="327" width="118" height="40" as="geometry">
            <mxRectangle width="118" height="40" as="alternateBounds" />
          </mxGeometry>
        </mxCell>
        <mxCell id="W7dTlUxyJdRYd5BLlbY7-4" value="&lt;font color=&quot;#0a0300&quot; style=&quot;font-size: 14px; background-color: rgb(255, 255, 255);&quot;&gt;Тип данных&lt;/font&gt;" style="shape=partialRectangle;html=1;whiteSpace=wrap;connectable=0;strokeColor=inherit;overflow=hidden;fillColor=none;top=0;left=0;bottom=0;right=0;pointerEvents=1;" parent="W7dTlUxyJdRYd5BLlbY7-2" vertex="1">
          <mxGeometry x="445" width="79" height="40" as="geometry">
            <mxRectangle width="79" height="40" as="alternateBounds" />
          </mxGeometry>
        </mxCell>
        <mxCell id="W7dTlUxyJdRYd5BLlbY7-5" value="&lt;font color=&quot;#0a0300&quot; style=&quot;font-size: 14px; background-color: rgb(255, 255, 255);&quot;&gt;Описание&lt;/font&gt;" style="shape=partialRectangle;html=1;whiteSpace=wrap;connectable=0;strokeColor=inherit;overflow=hidden;fillColor=none;top=0;left=0;bottom=0;right=0;pointerEvents=1;" parent="W7dTlUxyJdRYd5BLlbY7-2" vertex="1">
          <mxGeometry x="524" width="277" height="40" as="geometry">
            <mxRectangle width="277" height="40" as="alternateBounds" />
          </mxGeometry>
        </mxCell>
        <mxCell id="W7dTlUxyJdRYd5BLlbY7-6" value="&lt;font color=&quot;#0a0300&quot; style=&quot;font-size: 14px; background-color: rgb(255, 255, 255);&quot;&gt;Обязательность параметра&lt;/font&gt;" style="shape=partialRectangle;html=1;whiteSpace=wrap;connectable=0;strokeColor=inherit;overflow=hidden;fillColor=none;top=0;left=0;bottom=0;right=0;pointerEvents=1;" parent="W7dTlUxyJdRYd5BLlbY7-2" vertex="1">
          <mxGeometry x="801" width="139" height="40" as="geometry">
            <mxRectangle width="139" height="40" as="alternateBounds" />
          </mxGeometry>
        </mxCell>
        <mxCell id="W7dTlUxyJdRYd5BLlbY7-7" value="" style="shape=tableRow;horizontal=0;startSize=0;swimlaneHead=0;swimlaneBody=0;strokeColor=inherit;top=0;left=0;bottom=0;right=0;collapsible=0;dropTarget=0;fillColor=none;points=[[0,0.5],[1,0.5]];portConstraint=eastwest;" parent="W7dTlUxyJdRYd5BLlbY7-1" vertex="1">
          <mxGeometry y="40" width="940" height="60" as="geometry" />
        </mxCell>
        <mxCell id="VQXqekZz1te2qqjNtkpb-39" value="&lt;span style=&quot;color: rgb(10, 3, 0); text-align: left; white-space-collapse: break-spaces; background-color: rgb(255, 255, 255);&quot;&gt;&lt;font style=&quot;font-size: 14px;&quot;&gt;deliveries&lt;/font&gt;&lt;/span&gt;" style="shape=partialRectangle;html=1;whiteSpace=wrap;connectable=0;strokeColor=inherit;overflow=hidden;fillColor=none;top=0;left=0;bottom=0;right=0;pointerEvents=1;" vertex="1" parent="W7dTlUxyJdRYd5BLlbY7-7">
          <mxGeometry width="327" height="60" as="geometry">
            <mxRectangle width="327" height="60" as="alternateBounds" />
          </mxGeometry>
        </mxCell>
        <mxCell id="W7dTlUxyJdRYd5BLlbY7-8" value="&lt;div style=&quot;text-align: left;&quot;&gt;&lt;font style=&quot;font-size: 14px;&quot; color=&quot;#0a0300&quot;&gt;&lt;span style=&quot;white-space-collapse: break-spaces; background-color: rgb(255, 255, 255);&quot;&gt;query&lt;/span&gt;&lt;/font&gt;&lt;/div&gt;" style="shape=partialRectangle;html=1;whiteSpace=wrap;connectable=0;strokeColor=inherit;overflow=hidden;fillColor=none;top=0;left=0;bottom=0;right=0;pointerEvents=1;" parent="W7dTlUxyJdRYd5BLlbY7-7" vertex="1">
          <mxGeometry x="327" width="118" height="60" as="geometry">
            <mxRectangle width="118" height="60" as="alternateBounds" />
          </mxGeometry>
        </mxCell>
        <mxCell id="W7dTlUxyJdRYd5BLlbY7-9" value="&lt;font color=&quot;#0a0300&quot; style=&quot;font-size: 14px; background-color: rgb(255, 255, 255);&quot;&gt;string&lt;/font&gt;" style="shape=partialRectangle;html=1;whiteSpace=wrap;connectable=0;strokeColor=inherit;overflow=hidden;fillColor=none;top=0;left=0;bottom=0;right=0;pointerEvents=1;" parent="W7dTlUxyJdRYd5BLlbY7-7" vertex="1">
          <mxGeometry x="445" width="79" height="60" as="geometry">
            <mxRectangle width="79" height="60" as="alternateBounds" />
          </mxGeometry>
        </mxCell>
        <mxCell id="W7dTlUxyJdRYd5BLlbY7-10" value="&lt;span style=&quot;text-align: left; white-space-collapse: break-spaces; background-color: rgb(255, 255, 255);&quot;&gt;&lt;font style=&quot;font-size: 14px;&quot; face=&quot;Helvetica&quot; color=&quot;#0a0300&quot;&gt;Запрос возвращает все заказы, сгруппированные по датам доставки &lt;/font&gt;&lt;/span&gt;" style="shape=partialRectangle;html=1;whiteSpace=wrap;connectable=0;strokeColor=inherit;overflow=hidden;fillColor=none;top=0;left=0;bottom=0;right=0;pointerEvents=1;" parent="W7dTlUxyJdRYd5BLlbY7-7" vertex="1">
          <mxGeometry x="524" width="277" height="60" as="geometry">
            <mxRectangle width="277" height="60" as="alternateBounds" />
          </mxGeometry>
        </mxCell>
        <mxCell id="W7dTlUxyJdRYd5BLlbY7-11" value="&lt;font style=&quot;background-color: rgb(255, 255, 255); font-size: 14px;&quot; color=&quot;#0a0300&quot; face=&quot;Helvetica&quot;&gt;нет&lt;/font&gt;" style="shape=partialRectangle;html=1;whiteSpace=wrap;connectable=0;strokeColor=inherit;overflow=hidden;fillColor=none;top=0;left=0;bottom=0;right=0;pointerEvents=1;" parent="W7dTlUxyJdRYd5BLlbY7-7" vertex="1">
          <mxGeometry x="801" width="139" height="60" as="geometry">
            <mxRectangle width="139" height="60" as="alternateBounds" />
          </mxGeometry>
        </mxCell>
        <mxCell id="W7dTlUxyJdRYd5BLlbY7-59" value="&lt;font color=&quot;#0a0300&quot; style=&quot;&quot;&gt;&lt;b style=&quot;font-size: 16px; background-color: rgb(255, 255, 255);&quot;&gt;Response&lt;/b&gt;&lt;/font&gt;&lt;div&gt;&lt;font color=&quot;#0a0300&quot; style=&quot;&quot;&gt;&lt;span style=&quot;background-color: rgb(255, 255, 255); font-size: 16px;&quot;&gt;&lt;b&gt;&lt;br&gt;&lt;/b&gt;&lt;/span&gt;&lt;div style=&quot;text-align: left;&quot;&gt;&lt;span style=&quot;background-color: rgb(255, 255, 255);&quot;&gt;&lt;font style=&quot;font-size: 14px;&quot;&gt;code 200&lt;/font&gt;&lt;/span&gt;&lt;/div&gt;&lt;/font&gt;&lt;/div&gt;" style="text;html=1;align=center;verticalAlign=middle;resizable=0;points=[];autosize=1;strokeColor=none;fillColor=none;" parent="1" vertex="1">
          <mxGeometry x="-10" y="400" width="100" height="70" as="geometry" />
        </mxCell>
        <mxCell id="ChWrKj1eKKSMWkOD3-sH-1" value="&lt;div&gt;&lt;span style=&quot;font-size: 16px; background-color: rgb(255, 255, 255);&quot;&gt;&lt;b&gt;&lt;font color=&quot;#0a0300&quot;&gt;GET /deliveries&lt;br&gt;&lt;/font&gt;&lt;/b&gt;&lt;/span&gt;&lt;/div&gt;&lt;div&gt;&lt;span style=&quot;font-size: 16px; background-color: rgb(255, 255, 255);&quot;&gt;&lt;b&gt;&lt;font color=&quot;#0a0300&quot;&gt;&lt;br&gt;&lt;/font&gt;&lt;/b&gt;&lt;/span&gt;&lt;/div&gt;&lt;div&gt;&lt;font color=&quot;#0a0300&quot; style=&quot;font-size: 14px; background-color: rgb(255, 255, 255);&quot;&gt;запрос на получение заказов, сгруппированных по датам доставки&lt;/font&gt;&lt;/div&gt;&lt;div&gt;&lt;br&gt;&lt;/div&gt;" style="text;html=1;align=left;verticalAlign=middle;resizable=0;points=[];autosize=1;strokeColor=none;fillColor=none;" parent="1" vertex="1">
          <mxGeometry y="150" width="460" height="80" as="geometry" />
        </mxCell>
        <mxCell id="W7dTlUxyJdRYd5BLlbY7-32" value="" style="shape=table;startSize=0;container=1;collapsible=0;childLayout=tableLayout;" parent="1" vertex="1">
          <mxGeometry y="480" width="940" height="440" as="geometry" />
        </mxCell>
        <mxCell id="W7dTlUxyJdRYd5BLlbY7-33" value="" style="shape=tableRow;horizontal=0;startSize=0;swimlaneHead=0;swimlaneBody=0;strokeColor=inherit;top=0;left=0;bottom=0;right=0;collapsible=0;dropTarget=0;fillColor=none;points=[[0,0.5],[1,0.5]];portConstraint=eastwest;" parent="W7dTlUxyJdRYd5BLlbY7-32" vertex="1">
          <mxGeometry width="940" height="40" as="geometry" />
        </mxCell>
        <mxCell id="VQXqekZz1te2qqjNtkpb-1" value="&lt;font color=&quot;#0a0300&quot; style=&quot;font-size: 14px; background-color: rgb(255, 255, 255);&quot;&gt;Название параметра&lt;/font&gt;" style="shape=partialRectangle;html=1;whiteSpace=wrap;connectable=0;strokeColor=inherit;overflow=hidden;fillColor=none;top=0;left=0;bottom=0;right=0;pointerEvents=1;" vertex="1" parent="W7dTlUxyJdRYd5BLlbY7-33">
          <mxGeometry width="327" height="40" as="geometry">
            <mxRectangle width="327" height="40" as="alternateBounds" />
          </mxGeometry>
        </mxCell>
        <mxCell id="W7dTlUxyJdRYd5BLlbY7-34" value="&lt;font color=&quot;#0a0300&quot; style=&quot;font-size: 14px; background-color: rgb(255, 255, 255);&quot;&gt;Принадлежность&lt;/font&gt;" style="shape=partialRectangle;html=1;whiteSpace=wrap;connectable=0;strokeColor=inherit;overflow=hidden;fillColor=none;top=0;left=0;bottom=0;right=0;pointerEvents=1;" parent="W7dTlUxyJdRYd5BLlbY7-33" vertex="1">
          <mxGeometry x="327" width="118" height="40" as="geometry">
            <mxRectangle width="118" height="40" as="alternateBounds" />
          </mxGeometry>
        </mxCell>
        <mxCell id="W7dTlUxyJdRYd5BLlbY7-35" value="&lt;font color=&quot;#0a0300&quot; style=&quot;font-size: 14px; background-color: rgb(255, 255, 255);&quot;&gt;Тип данных&lt;/font&gt;" style="shape=partialRectangle;html=1;whiteSpace=wrap;connectable=0;strokeColor=inherit;overflow=hidden;fillColor=none;top=0;left=0;bottom=0;right=0;pointerEvents=1;" parent="W7dTlUxyJdRYd5BLlbY7-33" vertex="1">
          <mxGeometry x="445" width="79" height="40" as="geometry">
            <mxRectangle width="79" height="40" as="alternateBounds" />
          </mxGeometry>
        </mxCell>
        <mxCell id="W7dTlUxyJdRYd5BLlbY7-36" value="&lt;font color=&quot;#0a0300&quot; style=&quot;font-size: 14px; background-color: rgb(255, 255, 255);&quot;&gt;Описание&lt;/font&gt;" style="shape=partialRectangle;html=1;whiteSpace=wrap;connectable=0;strokeColor=inherit;overflow=hidden;fillColor=none;top=0;left=0;bottom=0;right=0;pointerEvents=1;" parent="W7dTlUxyJdRYd5BLlbY7-33" vertex="1">
          <mxGeometry x="524" width="277" height="40" as="geometry">
            <mxRectangle width="277" height="40" as="alternateBounds" />
          </mxGeometry>
        </mxCell>
        <mxCell id="W7dTlUxyJdRYd5BLlbY7-37" value="&lt;font color=&quot;#0a0300&quot; style=&quot;font-size: 14px; background-color: rgb(255, 255, 255);&quot;&gt;Обязательность параметра&lt;/font&gt;" style="shape=partialRectangle;html=1;whiteSpace=wrap;connectable=0;strokeColor=inherit;overflow=hidden;fillColor=none;top=0;left=0;bottom=0;right=0;pointerEvents=1;" parent="W7dTlUxyJdRYd5BLlbY7-33" vertex="1">
          <mxGeometry x="801" width="139" height="40" as="geometry">
            <mxRectangle width="139" height="40" as="alternateBounds" />
          </mxGeometry>
        </mxCell>
        <mxCell id="W7dTlUxyJdRYd5BLlbY7-38" value="" style="shape=tableRow;horizontal=0;startSize=0;swimlaneHead=0;swimlaneBody=0;strokeColor=inherit;top=0;left=0;bottom=0;right=0;collapsible=0;dropTarget=0;fillColor=none;points=[[0,0.5],[1,0.5]];portConstraint=eastwest;" parent="W7dTlUxyJdRYd5BLlbY7-32" vertex="1">
          <mxGeometry y="40" width="940" height="40" as="geometry" />
        </mxCell>
        <mxCell id="VQXqekZz1te2qqjNtkpb-2" value="&lt;span style=&quot;white-space-collapse: break-spaces; background-color: rgb(255, 255, 255);&quot;&gt;&lt;font face=&quot;Helvetica&quot; style=&quot;font-size: 14px;&quot; color=&quot;#0a0300&quot;&gt;deliveries&lt;/font&gt;&lt;/span&gt;" style="shape=partialRectangle;html=1;whiteSpace=wrap;connectable=0;strokeColor=inherit;overflow=hidden;fillColor=none;top=0;left=0;bottom=0;right=0;pointerEvents=1;align=left;" vertex="1" parent="W7dTlUxyJdRYd5BLlbY7-38">
          <mxGeometry width="327" height="40" as="geometry">
            <mxRectangle width="327" height="40" as="alternateBounds" />
          </mxGeometry>
        </mxCell>
        <mxCell id="W7dTlUxyJdRYd5BLlbY7-39" value="&lt;span style=&quot;text-align: left; white-space-collapse: break-spaces; background-color: rgb(255, 255, 255);&quot;&gt;&lt;font style=&quot;font-size: 14px;&quot; face=&quot;Helvetica&quot; color=&quot;#0a0300&quot;&gt;body&lt;/font&gt;&lt;/span&gt;" style="shape=partialRectangle;html=1;whiteSpace=wrap;connectable=0;strokeColor=inherit;overflow=hidden;fillColor=none;top=0;left=0;bottom=0;right=0;pointerEvents=1;" parent="W7dTlUxyJdRYd5BLlbY7-38" vertex="1">
          <mxGeometry x="327" width="118" height="40" as="geometry">
            <mxRectangle width="118" height="40" as="alternateBounds" />
          </mxGeometry>
        </mxCell>
        <mxCell id="W7dTlUxyJdRYd5BLlbY7-40" value="&lt;span style=&quot;text-align: left; white-space-collapse: break-spaces; background-color: rgb(255, 255, 255);&quot;&gt;&lt;font style=&quot;font-size: 14px;&quot; face=&quot;Helvetica&quot; color=&quot;#0a0300&quot;&gt;array&lt;/font&gt;&lt;/span&gt;" style="shape=partialRectangle;html=1;whiteSpace=wrap;connectable=0;strokeColor=inherit;overflow=hidden;fillColor=none;top=0;left=0;bottom=0;right=0;pointerEvents=1;" parent="W7dTlUxyJdRYd5BLlbY7-38" vertex="1">
          <mxGeometry x="445" width="79" height="40" as="geometry">
            <mxRectangle width="79" height="40" as="alternateBounds" />
          </mxGeometry>
        </mxCell>
        <mxCell id="W7dTlUxyJdRYd5BLlbY7-41" value="&lt;span style=&quot;text-align: left; white-space-collapse: break-spaces; background-color: rgb(255, 255, 255);&quot;&gt;&lt;font color=&quot;#0a0300&quot; style=&quot;font-size: 14px;&quot; face=&quot;Helvetica&quot;&gt;Массив объектов доставки, сгруппированных по дате&lt;/font&gt;&lt;/span&gt;" style="shape=partialRectangle;html=1;whiteSpace=wrap;connectable=0;strokeColor=inherit;overflow=hidden;fillColor=none;top=0;left=0;bottom=0;right=0;pointerEvents=1;" parent="W7dTlUxyJdRYd5BLlbY7-38" vertex="1">
          <mxGeometry x="524" width="277" height="40" as="geometry">
            <mxRectangle width="277" height="40" as="alternateBounds" />
          </mxGeometry>
        </mxCell>
        <mxCell id="W7dTlUxyJdRYd5BLlbY7-42" value="&lt;font color=&quot;#0a0300&quot; style=&quot;font-size: 14px; background-color: rgb(255, 255, 255);&quot;&gt;да&lt;/font&gt;" style="shape=partialRectangle;html=1;whiteSpace=wrap;connectable=0;strokeColor=inherit;overflow=hidden;fillColor=none;top=0;left=0;bottom=0;right=0;pointerEvents=1;" parent="W7dTlUxyJdRYd5BLlbY7-38" vertex="1">
          <mxGeometry x="801" width="139" height="40" as="geometry">
            <mxRectangle width="139" height="40" as="alternateBounds" />
          </mxGeometry>
        </mxCell>
        <mxCell id="W7dTlUxyJdRYd5BLlbY7-43" value="" style="shape=tableRow;horizontal=0;startSize=0;swimlaneHead=0;swimlaneBody=0;strokeColor=inherit;top=0;left=0;bottom=0;right=0;collapsible=0;dropTarget=0;fillColor=none;points=[[0,0.5],[1,0.5]];portConstraint=eastwest;" parent="W7dTlUxyJdRYd5BLlbY7-32" vertex="1">
          <mxGeometry y="80" width="940" height="40" as="geometry" />
        </mxCell>
        <mxCell id="VQXqekZz1te2qqjNtkpb-3" value="&lt;font face=&quot;Helvetica&quot; style=&quot;background-color: rgb(255, 255, 255); font-size: 14px;&quot; color=&quot;#0a0300&quot;&gt;&lt;span style=&quot;white-space-collapse: break-spaces;&quot;&gt;                &lt;/span&gt;&lt;span style=&quot;white-space-collapse: break-spaces;&quot;&gt;&lt;font style=&quot;&quot;&gt;delivery_date&lt;/font&gt;&lt;/span&gt;&lt;/font&gt;" style="shape=partialRectangle;html=1;whiteSpace=wrap;connectable=0;strokeColor=inherit;overflow=hidden;fillColor=none;top=0;left=0;bottom=0;right=0;pointerEvents=1;align=left;" vertex="1" parent="W7dTlUxyJdRYd5BLlbY7-43">
          <mxGeometry width="327" height="40" as="geometry">
            <mxRectangle width="327" height="40" as="alternateBounds" />
          </mxGeometry>
        </mxCell>
        <mxCell id="W7dTlUxyJdRYd5BLlbY7-44" value="&lt;span style=&quot;color: rgb(10, 3, 0); font-size: 14px; text-align: left; white-space-collapse: break-spaces; background-color: rgb(255, 255, 255);&quot;&gt;body&lt;/span&gt;" style="shape=partialRectangle;html=1;whiteSpace=wrap;connectable=0;strokeColor=inherit;overflow=hidden;fillColor=none;top=0;left=0;bottom=0;right=0;pointerEvents=1;" parent="W7dTlUxyJdRYd5BLlbY7-43" vertex="1">
          <mxGeometry x="327" width="118" height="40" as="geometry">
            <mxRectangle width="118" height="40" as="alternateBounds" />
          </mxGeometry>
        </mxCell>
        <mxCell id="W7dTlUxyJdRYd5BLlbY7-45" value="&lt;font color=&quot;#0a0300&quot; style=&quot;font-size: 14px; background-color: rgb(255, 255, 255);&quot;&gt;string&lt;/font&gt;" style="shape=partialRectangle;html=1;whiteSpace=wrap;connectable=0;strokeColor=inherit;overflow=hidden;fillColor=none;top=0;left=0;bottom=0;right=0;pointerEvents=1;" parent="W7dTlUxyJdRYd5BLlbY7-43" vertex="1">
          <mxGeometry x="445" width="79" height="40" as="geometry">
            <mxRectangle width="79" height="40" as="alternateBounds" />
          </mxGeometry>
        </mxCell>
        <mxCell id="W7dTlUxyJdRYd5BLlbY7-46" value="&lt;span style=&quot;text-align: left; white-space-collapse: break-spaces; background-color: rgb(255, 255, 255);&quot;&gt;&lt;font style=&quot;font-size: 14px;&quot; color=&quot;#0a0300&quot;&gt;Дата доставки в формате YYYY-MM-DD&lt;/font&gt;&lt;/span&gt;" style="shape=partialRectangle;html=1;whiteSpace=wrap;connectable=0;strokeColor=inherit;overflow=hidden;fillColor=none;top=0;left=0;bottom=0;right=0;pointerEvents=1;" parent="W7dTlUxyJdRYd5BLlbY7-43" vertex="1">
          <mxGeometry x="524" width="277" height="40" as="geometry">
            <mxRectangle width="277" height="40" as="alternateBounds" />
          </mxGeometry>
        </mxCell>
        <mxCell id="W7dTlUxyJdRYd5BLlbY7-47" value="&lt;span style=&quot;color: rgb(10, 3, 0); font-size: 14px; background-color: rgb(255, 255, 255);&quot;&gt;да&lt;/span&gt;" style="shape=partialRectangle;html=1;whiteSpace=wrap;connectable=0;strokeColor=inherit;overflow=hidden;fillColor=none;top=0;left=0;bottom=0;right=0;pointerEvents=1;" parent="W7dTlUxyJdRYd5BLlbY7-43" vertex="1">
          <mxGeometry x="801" width="139" height="40" as="geometry">
            <mxRectangle width="139" height="40" as="alternateBounds" />
          </mxGeometry>
        </mxCell>
        <mxCell id="W7dTlUxyJdRYd5BLlbY7-48" value="" style="shape=tableRow;horizontal=0;startSize=0;swimlaneHead=0;swimlaneBody=0;strokeColor=inherit;top=0;left=0;bottom=0;right=0;collapsible=0;dropTarget=0;fillColor=none;points=[[0,0.5],[1,0.5]];portConstraint=eastwest;" parent="W7dTlUxyJdRYd5BLlbY7-32" vertex="1">
          <mxGeometry y="120" width="940" height="40" as="geometry" />
        </mxCell>
        <mxCell id="VQXqekZz1te2qqjNtkpb-4" value="&lt;span style=&quot;white-space-collapse: break-spaces; background-color: rgb(255, 255, 255);&quot;&gt;&lt;font color=&quot;#0a0300&quot; style=&quot;font-size: 14px;&quot;&gt;                 orders&lt;/font&gt;&lt;/span&gt;" style="shape=partialRectangle;html=1;whiteSpace=wrap;connectable=0;strokeColor=inherit;overflow=hidden;fillColor=none;top=0;left=0;bottom=0;right=0;pointerEvents=1;align=left;" vertex="1" parent="W7dTlUxyJdRYd5BLlbY7-48">
          <mxGeometry width="327" height="40" as="geometry">
            <mxRectangle width="327" height="40" as="alternateBounds" />
          </mxGeometry>
        </mxCell>
        <mxCell id="W7dTlUxyJdRYd5BLlbY7-49" value="&lt;span style=&quot;color: rgb(10, 3, 0); font-size: 14px; text-align: left; white-space-collapse: break-spaces; background-color: rgb(255, 255, 255);&quot;&gt;body&lt;/span&gt;" style="shape=partialRectangle;html=1;whiteSpace=wrap;connectable=0;strokeColor=inherit;overflow=hidden;fillColor=none;top=0;left=0;bottom=0;right=0;pointerEvents=1;" parent="W7dTlUxyJdRYd5BLlbY7-48" vertex="1">
          <mxGeometry x="327" width="118" height="40" as="geometry">
            <mxRectangle width="118" height="40" as="alternateBounds" />
          </mxGeometry>
        </mxCell>
        <mxCell id="W7dTlUxyJdRYd5BLlbY7-50" value="&lt;span style=&quot;color: rgb(10, 3, 0); font-size: 14px; text-align: left; white-space-collapse: break-spaces; background-color: rgb(255, 255, 255);&quot;&gt;array&lt;/span&gt;" style="shape=partialRectangle;html=1;whiteSpace=wrap;connectable=0;strokeColor=inherit;overflow=hidden;fillColor=none;top=0;left=0;bottom=0;right=0;pointerEvents=1;" parent="W7dTlUxyJdRYd5BLlbY7-48" vertex="1">
          <mxGeometry x="445" width="79" height="40" as="geometry">
            <mxRectangle width="79" height="40" as="alternateBounds" />
          </mxGeometry>
        </mxCell>
        <mxCell id="W7dTlUxyJdRYd5BLlbY7-51" value="&lt;span style=&quot;text-align: left; white-space-collapse: break-spaces; background-color: rgb(255, 255, 255);&quot;&gt;&lt;font color=&quot;#0a0300&quot; style=&quot;font-size: 14px;&quot; face=&quot;Helvetica&quot;&gt;Массив заказов, связанных с данной датой доставки&lt;/font&gt;&lt;/span&gt;" style="shape=partialRectangle;html=1;whiteSpace=wrap;connectable=0;strokeColor=inherit;overflow=hidden;fillColor=none;top=0;left=0;bottom=0;right=0;pointerEvents=1;" parent="W7dTlUxyJdRYd5BLlbY7-48" vertex="1">
          <mxGeometry x="524" width="277" height="40" as="geometry">
            <mxRectangle width="277" height="40" as="alternateBounds" />
          </mxGeometry>
        </mxCell>
        <mxCell id="W7dTlUxyJdRYd5BLlbY7-52" value="&lt;span style=&quot;color: rgb(10, 3, 0); font-size: 14px; background-color: rgb(255, 255, 255);&quot;&gt;да&lt;/span&gt;" style="shape=partialRectangle;html=1;whiteSpace=wrap;connectable=0;strokeColor=inherit;overflow=hidden;fillColor=none;top=0;left=0;bottom=0;right=0;pointerEvents=1;" parent="W7dTlUxyJdRYd5BLlbY7-48" vertex="1">
          <mxGeometry x="801" width="139" height="40" as="geometry">
            <mxRectangle width="139" height="40" as="alternateBounds" />
          </mxGeometry>
        </mxCell>
        <mxCell id="W7dTlUxyJdRYd5BLlbY7-53" value="" style="shape=tableRow;horizontal=0;startSize=0;swimlaneHead=0;swimlaneBody=0;strokeColor=inherit;top=0;left=0;bottom=0;right=0;collapsible=0;dropTarget=0;fillColor=none;points=[[0,0.5],[1,0.5]];portConstraint=eastwest;" parent="W7dTlUxyJdRYd5BLlbY7-32" vertex="1">
          <mxGeometry y="160" width="940" height="40" as="geometry" />
        </mxCell>
        <mxCell id="VQXqekZz1te2qqjNtkpb-5" value="&lt;span style=&quot;text-align: left; white-space-collapse: break-spaces; background-color: rgb(255, 255, 255);&quot;&gt;&lt;font face=&quot;Helvetica&quot; style=&quot;font-size: 14px;&quot; color=&quot;#0a0300&quot;&gt;order_id&lt;/font&gt;&lt;/span&gt;" style="shape=partialRectangle;html=1;whiteSpace=wrap;connectable=0;strokeColor=inherit;overflow=hidden;fillColor=none;top=0;left=0;bottom=0;right=0;pointerEvents=1;" vertex="1" parent="W7dTlUxyJdRYd5BLlbY7-53">
          <mxGeometry width="327" height="40" as="geometry">
            <mxRectangle width="327" height="40" as="alternateBounds" />
          </mxGeometry>
        </mxCell>
        <mxCell id="W7dTlUxyJdRYd5BLlbY7-54" value="&lt;span style=&quot;color: rgb(10, 3, 0); font-size: 14px; text-align: left; white-space-collapse: break-spaces; background-color: rgb(255, 255, 255);&quot;&gt;body&lt;/span&gt;" style="shape=partialRectangle;html=1;whiteSpace=wrap;connectable=0;strokeColor=inherit;overflow=hidden;fillColor=none;top=0;left=0;bottom=0;right=0;pointerEvents=1;" parent="W7dTlUxyJdRYd5BLlbY7-53" vertex="1">
          <mxGeometry x="327" width="118" height="40" as="geometry">
            <mxRectangle width="118" height="40" as="alternateBounds" />
          </mxGeometry>
        </mxCell>
        <mxCell id="W7dTlUxyJdRYd5BLlbY7-55" value="&lt;span style=&quot;text-align: left; white-space-collapse: break-spaces; background-color: rgb(255, 255, 255);&quot;&gt;&lt;font color=&quot;#0a0300&quot; style=&quot;font-size: 14px;&quot; face=&quot;Helvetica&quot;&gt;integer&lt;/font&gt;&lt;/span&gt;" style="shape=partialRectangle;html=1;whiteSpace=wrap;connectable=0;strokeColor=inherit;overflow=hidden;fillColor=none;top=0;left=0;bottom=0;right=0;pointerEvents=1;" parent="W7dTlUxyJdRYd5BLlbY7-53" vertex="1">
          <mxGeometry x="445" width="79" height="40" as="geometry">
            <mxRectangle width="79" height="40" as="alternateBounds" />
          </mxGeometry>
        </mxCell>
        <mxCell id="W7dTlUxyJdRYd5BLlbY7-56" value="&lt;span style=&quot;text-align: left; white-space-collapse: break-spaces; background-color: rgb(255, 255, 255);&quot;&gt;&lt;font face=&quot;Helvetica&quot; style=&quot;font-size: 14px;&quot; color=&quot;#0a0300&quot;&gt;Уникальный идентификатор заказа&lt;/font&gt;&lt;/span&gt;" style="shape=partialRectangle;html=1;whiteSpace=wrap;connectable=0;strokeColor=inherit;overflow=hidden;fillColor=none;top=0;left=0;bottom=0;right=0;pointerEvents=1;" parent="W7dTlUxyJdRYd5BLlbY7-53" vertex="1">
          <mxGeometry x="524" width="277" height="40" as="geometry">
            <mxRectangle width="277" height="40" as="alternateBounds" />
          </mxGeometry>
        </mxCell>
        <mxCell id="W7dTlUxyJdRYd5BLlbY7-57" value="&lt;span style=&quot;color: rgb(10, 3, 0); font-size: 14px; background-color: rgb(255, 255, 255);&quot;&gt;да&lt;/span&gt;" style="shape=partialRectangle;html=1;whiteSpace=wrap;connectable=0;strokeColor=inherit;overflow=hidden;fillColor=none;top=0;left=0;bottom=0;right=0;pointerEvents=1;" parent="W7dTlUxyJdRYd5BLlbY7-53" vertex="1">
          <mxGeometry x="801" width="139" height="40" as="geometry">
            <mxRectangle width="139" height="40" as="alternateBounds" />
          </mxGeometry>
        </mxCell>
        <mxCell id="ChWrKj1eKKSMWkOD3-sH-2" style="shape=tableRow;horizontal=0;startSize=0;swimlaneHead=0;swimlaneBody=0;strokeColor=inherit;top=0;left=0;bottom=0;right=0;collapsible=0;dropTarget=0;fillColor=none;points=[[0,0.5],[1,0.5]];portConstraint=eastwest;" parent="W7dTlUxyJdRYd5BLlbY7-32" vertex="1">
          <mxGeometry y="200" width="940" height="40" as="geometry" />
        </mxCell>
        <mxCell id="VQXqekZz1te2qqjNtkpb-6" value="&lt;span style=&quot;text-align: left; white-space-collapse: break-spaces; background-color: rgb(255, 255, 255);&quot;&gt;&lt;font face=&quot;Helvetica&quot; color=&quot;#0a0300&quot; style=&quot;font-size: 14px;&quot;&gt;   delivery_id&lt;/font&gt;&lt;/span&gt;" style="shape=partialRectangle;html=1;whiteSpace=wrap;connectable=0;strokeColor=inherit;overflow=hidden;fillColor=none;top=0;left=0;bottom=0;right=0;pointerEvents=1;" vertex="1" parent="ChWrKj1eKKSMWkOD3-sH-2">
          <mxGeometry width="327" height="40" as="geometry">
            <mxRectangle width="327" height="40" as="alternateBounds" />
          </mxGeometry>
        </mxCell>
        <mxCell id="ChWrKj1eKKSMWkOD3-sH-3" value="&lt;span style=&quot;color: rgb(10, 3, 0); font-size: 14px; text-align: left; white-space-collapse: break-spaces; background-color: rgb(255, 255, 255);&quot;&gt;body&lt;/span&gt;" style="shape=partialRectangle;html=1;whiteSpace=wrap;connectable=0;strokeColor=inherit;overflow=hidden;fillColor=none;top=0;left=0;bottom=0;right=0;pointerEvents=1;" parent="ChWrKj1eKKSMWkOD3-sH-2" vertex="1">
          <mxGeometry x="327" width="118" height="40" as="geometry">
            <mxRectangle width="118" height="40" as="alternateBounds" />
          </mxGeometry>
        </mxCell>
        <mxCell id="ChWrKj1eKKSMWkOD3-sH-4" value="&lt;span style=&quot;color: rgb(10, 3, 0); font-size: 14px; text-align: left; white-space-collapse: break-spaces; background-color: rgb(255, 255, 255);&quot;&gt;integer&lt;/span&gt;" style="shape=partialRectangle;html=1;whiteSpace=wrap;connectable=0;strokeColor=inherit;overflow=hidden;fillColor=none;top=0;left=0;bottom=0;right=0;pointerEvents=1;" parent="ChWrKj1eKKSMWkOD3-sH-2" vertex="1">
          <mxGeometry x="445" width="79" height="40" as="geometry">
            <mxRectangle width="79" height="40" as="alternateBounds" />
          </mxGeometry>
        </mxCell>
        <mxCell id="ChWrKj1eKKSMWkOD3-sH-5" value="&lt;span style=&quot;color: rgb(10, 3, 0); font-size: 14px; text-align: left; white-space-collapse: break-spaces; background-color: rgb(255, 255, 255);&quot;&gt;Уникальный идентификатор доставки&lt;/span&gt;" style="shape=partialRectangle;html=1;whiteSpace=wrap;connectable=0;strokeColor=inherit;overflow=hidden;fillColor=none;top=0;left=0;bottom=0;right=0;pointerEvents=1;" parent="ChWrKj1eKKSMWkOD3-sH-2" vertex="1">
          <mxGeometry x="524" width="277" height="40" as="geometry">
            <mxRectangle width="277" height="40" as="alternateBounds" />
          </mxGeometry>
        </mxCell>
        <mxCell id="ChWrKj1eKKSMWkOD3-sH-6" value="&lt;span style=&quot;color: rgb(10, 3, 0); font-size: 14px; background-color: rgb(255, 255, 255);&quot;&gt;да&lt;/span&gt;" style="shape=partialRectangle;html=1;whiteSpace=wrap;connectable=0;strokeColor=inherit;overflow=hidden;fillColor=none;top=0;left=0;bottom=0;right=0;pointerEvents=1;" parent="ChWrKj1eKKSMWkOD3-sH-2" vertex="1">
          <mxGeometry x="801" width="139" height="40" as="geometry">
            <mxRectangle width="139" height="40" as="alternateBounds" />
          </mxGeometry>
        </mxCell>
        <mxCell id="ChWrKj1eKKSMWkOD3-sH-7" style="shape=tableRow;horizontal=0;startSize=0;swimlaneHead=0;swimlaneBody=0;strokeColor=inherit;top=0;left=0;bottom=0;right=0;collapsible=0;dropTarget=0;fillColor=none;points=[[0,0.5],[1,0.5]];portConstraint=eastwest;" parent="W7dTlUxyJdRYd5BLlbY7-32" vertex="1">
          <mxGeometry y="240" width="940" height="40" as="geometry" />
        </mxCell>
        <mxCell id="VQXqekZz1te2qqjNtkpb-7" value="&lt;span style=&quot;text-align: left; white-space-collapse: break-spaces; background-color: rgb(255, 255, 255);&quot;&gt;&lt;font face=&quot;Helvetica&quot; color=&quot;#0a0300&quot; style=&quot;font-size: 14px;&quot;&gt;products&lt;/font&gt;&lt;/span&gt;" style="shape=partialRectangle;html=1;whiteSpace=wrap;connectable=0;strokeColor=inherit;overflow=hidden;fillColor=none;top=0;left=0;bottom=0;right=0;pointerEvents=1;" vertex="1" parent="ChWrKj1eKKSMWkOD3-sH-7">
          <mxGeometry width="327" height="40" as="geometry">
            <mxRectangle width="327" height="40" as="alternateBounds" />
          </mxGeometry>
        </mxCell>
        <mxCell id="ChWrKj1eKKSMWkOD3-sH-8" value="&lt;span style=&quot;color: rgb(10, 3, 0); font-size: 14px; text-align: left; white-space-collapse: break-spaces; background-color: rgb(255, 255, 255);&quot;&gt;body&lt;/span&gt;" style="shape=partialRectangle;html=1;whiteSpace=wrap;connectable=0;strokeColor=inherit;overflow=hidden;fillColor=none;top=0;left=0;bottom=0;right=0;pointerEvents=1;" parent="ChWrKj1eKKSMWkOD3-sH-7" vertex="1">
          <mxGeometry x="327" width="118" height="40" as="geometry">
            <mxRectangle width="118" height="40" as="alternateBounds" />
          </mxGeometry>
        </mxCell>
        <mxCell id="ChWrKj1eKKSMWkOD3-sH-9" value="&lt;span style=&quot;color: rgb(10, 3, 0); font-size: 14px; text-align: left; white-space-collapse: break-spaces; background-color: rgb(255, 255, 255);&quot;&gt;array&lt;/span&gt;" style="shape=partialRectangle;html=1;whiteSpace=wrap;connectable=0;strokeColor=inherit;overflow=hidden;fillColor=none;top=0;left=0;bottom=0;right=0;pointerEvents=1;" parent="ChWrKj1eKKSMWkOD3-sH-7" vertex="1">
          <mxGeometry x="445" width="79" height="40" as="geometry">
            <mxRectangle width="79" height="40" as="alternateBounds" />
          </mxGeometry>
        </mxCell>
        <mxCell id="ChWrKj1eKKSMWkOD3-sH-10" value="&lt;span style=&quot;text-align: left; white-space-collapse: break-spaces; background-color: rgb(255, 255, 255);&quot;&gt;&lt;font color=&quot;#0a0300&quot; style=&quot;font-size: 14px;&quot; face=&quot;Helvetica&quot;&gt;Массив товаров в заказе&lt;/font&gt;&lt;/span&gt;" style="shape=partialRectangle;html=1;whiteSpace=wrap;connectable=0;strokeColor=inherit;overflow=hidden;fillColor=none;top=0;left=0;bottom=0;right=0;pointerEvents=1;" parent="ChWrKj1eKKSMWkOD3-sH-7" vertex="1">
          <mxGeometry x="524" width="277" height="40" as="geometry">
            <mxRectangle width="277" height="40" as="alternateBounds" />
          </mxGeometry>
        </mxCell>
        <mxCell id="ChWrKj1eKKSMWkOD3-sH-11" value="&lt;span style=&quot;color: rgb(10, 3, 0); font-size: 14px; background-color: rgb(255, 255, 255);&quot;&gt;да&lt;/span&gt;" style="shape=partialRectangle;html=1;whiteSpace=wrap;connectable=0;strokeColor=inherit;overflow=hidden;fillColor=none;top=0;left=0;bottom=0;right=0;pointerEvents=1;" parent="ChWrKj1eKKSMWkOD3-sH-7" vertex="1">
          <mxGeometry x="801" width="139" height="40" as="geometry">
            <mxRectangle width="139" height="40" as="alternateBounds" />
          </mxGeometry>
        </mxCell>
        <mxCell id="VQXqekZz1te2qqjNtkpb-8" style="shape=tableRow;horizontal=0;startSize=0;swimlaneHead=0;swimlaneBody=0;strokeColor=inherit;top=0;left=0;bottom=0;right=0;collapsible=0;dropTarget=0;fillColor=none;points=[[0,0.5],[1,0.5]];portConstraint=eastwest;" vertex="1" parent="W7dTlUxyJdRYd5BLlbY7-32">
          <mxGeometry y="280" width="940" height="40" as="geometry" />
        </mxCell>
        <mxCell id="VQXqekZz1te2qqjNtkpb-9" value="&lt;span style=&quot;text-align: left; white-space-collapse: break-spaces; background-color: rgb(255, 255, 255);&quot;&gt;&lt;font face=&quot;Helvetica&quot; color=&quot;#0a0300&quot; style=&quot;font-size: 14px;&quot;&gt;                                             product_id&lt;/font&gt;&lt;/span&gt;" style="shape=partialRectangle;html=1;whiteSpace=wrap;connectable=0;strokeColor=inherit;overflow=hidden;fillColor=none;top=0;left=0;bottom=0;right=0;pointerEvents=1;" vertex="1" parent="VQXqekZz1te2qqjNtkpb-8">
          <mxGeometry width="327" height="40" as="geometry">
            <mxRectangle width="327" height="40" as="alternateBounds" />
          </mxGeometry>
        </mxCell>
        <mxCell id="VQXqekZz1te2qqjNtkpb-10" value="&lt;span style=&quot;color: rgb(10, 3, 0); font-size: 14px; text-align: left; white-space-collapse: break-spaces; background-color: rgb(255, 255, 255);&quot;&gt;body&lt;/span&gt;" style="shape=partialRectangle;html=1;whiteSpace=wrap;connectable=0;strokeColor=inherit;overflow=hidden;fillColor=none;top=0;left=0;bottom=0;right=0;pointerEvents=1;" vertex="1" parent="VQXqekZz1te2qqjNtkpb-8">
          <mxGeometry x="327" width="118" height="40" as="geometry">
            <mxRectangle width="118" height="40" as="alternateBounds" />
          </mxGeometry>
        </mxCell>
        <mxCell id="VQXqekZz1te2qqjNtkpb-11" value="&lt;span style=&quot;color: rgb(10, 3, 0); font-size: 14px; text-align: left; white-space-collapse: break-spaces; background-color: rgb(255, 255, 255);&quot;&gt;integer&lt;/span&gt;" style="shape=partialRectangle;html=1;whiteSpace=wrap;connectable=0;strokeColor=inherit;overflow=hidden;fillColor=none;top=0;left=0;bottom=0;right=0;pointerEvents=1;" vertex="1" parent="VQXqekZz1te2qqjNtkpb-8">
          <mxGeometry x="445" width="79" height="40" as="geometry">
            <mxRectangle width="79" height="40" as="alternateBounds" />
          </mxGeometry>
        </mxCell>
        <mxCell id="VQXqekZz1te2qqjNtkpb-12" value="&lt;span style=&quot;color: rgb(10, 3, 0); font-size: 14px; text-align: left; white-space-collapse: break-spaces; background-color: rgb(255, 255, 255);&quot;&gt;Уникальный идентификатор товара&lt;/span&gt;" style="shape=partialRectangle;html=1;whiteSpace=wrap;connectable=0;strokeColor=inherit;overflow=hidden;fillColor=none;top=0;left=0;bottom=0;right=0;pointerEvents=1;" vertex="1" parent="VQXqekZz1te2qqjNtkpb-8">
          <mxGeometry x="524" width="277" height="40" as="geometry">
            <mxRectangle width="277" height="40" as="alternateBounds" />
          </mxGeometry>
        </mxCell>
        <mxCell id="VQXqekZz1te2qqjNtkpb-13" value="&lt;span style=&quot;color: rgb(10, 3, 0); font-size: 14px; background-color: rgb(255, 255, 255);&quot;&gt;да&lt;/span&gt;" style="shape=partialRectangle;html=1;whiteSpace=wrap;connectable=0;strokeColor=inherit;overflow=hidden;fillColor=none;top=0;left=0;bottom=0;right=0;pointerEvents=1;" vertex="1" parent="VQXqekZz1te2qqjNtkpb-8">
          <mxGeometry x="801" width="139" height="40" as="geometry">
            <mxRectangle width="139" height="40" as="alternateBounds" />
          </mxGeometry>
        </mxCell>
        <mxCell id="VQXqekZz1te2qqjNtkpb-14" style="shape=tableRow;horizontal=0;startSize=0;swimlaneHead=0;swimlaneBody=0;strokeColor=inherit;top=0;left=0;bottom=0;right=0;collapsible=0;dropTarget=0;fillColor=none;points=[[0,0.5],[1,0.5]];portConstraint=eastwest;" vertex="1" parent="W7dTlUxyJdRYd5BLlbY7-32">
          <mxGeometry y="320" width="940" height="40" as="geometry" />
        </mxCell>
        <mxCell id="VQXqekZz1te2qqjNtkpb-15" value="&lt;span style=&quot;font-size: 14.4px; text-align: left; white-space-collapse: break-spaces; background-color: rgb(255, 255, 255);&quot;&gt;&lt;font face=&quot;Helvetica&quot; color=&quot;#0a0300&quot; style=&quot;&quot;&gt;                                                   product_name&lt;/font&gt;&lt;/span&gt;" style="shape=partialRectangle;html=1;whiteSpace=wrap;connectable=0;strokeColor=inherit;overflow=hidden;fillColor=none;top=0;left=0;bottom=0;right=0;pointerEvents=1;" vertex="1" parent="VQXqekZz1te2qqjNtkpb-14">
          <mxGeometry width="327" height="40" as="geometry">
            <mxRectangle width="327" height="40" as="alternateBounds" />
          </mxGeometry>
        </mxCell>
        <mxCell id="VQXqekZz1te2qqjNtkpb-16" value="&lt;span style=&quot;color: rgb(10, 3, 0); font-size: 14px; text-align: left; white-space-collapse: break-spaces; background-color: rgb(255, 255, 255);&quot;&gt;body&lt;/span&gt;" style="shape=partialRectangle;html=1;whiteSpace=wrap;connectable=0;strokeColor=inherit;overflow=hidden;fillColor=none;top=0;left=0;bottom=0;right=0;pointerEvents=1;" vertex="1" parent="VQXqekZz1te2qqjNtkpb-14">
          <mxGeometry x="327" width="118" height="40" as="geometry">
            <mxRectangle width="118" height="40" as="alternateBounds" />
          </mxGeometry>
        </mxCell>
        <mxCell id="VQXqekZz1te2qqjNtkpb-17" value="&lt;span style=&quot;color: rgb(10, 3, 0); font-size: 14px; background-color: rgb(255, 255, 255);&quot;&gt;string&lt;/span&gt;" style="shape=partialRectangle;html=1;whiteSpace=wrap;connectable=0;strokeColor=inherit;overflow=hidden;fillColor=none;top=0;left=0;bottom=0;right=0;pointerEvents=1;" vertex="1" parent="VQXqekZz1te2qqjNtkpb-14">
          <mxGeometry x="445" width="79" height="40" as="geometry">
            <mxRectangle width="79" height="40" as="alternateBounds" />
          </mxGeometry>
        </mxCell>
        <mxCell id="VQXqekZz1te2qqjNtkpb-18" value="&lt;span style=&quot;color: rgb(10, 3, 0); font-size: 14px; text-align: left; white-space-collapse: break-spaces; background-color: rgb(255, 255, 255);&quot;&gt;Название товара&lt;/span&gt;" style="shape=partialRectangle;html=1;whiteSpace=wrap;connectable=0;strokeColor=inherit;overflow=hidden;fillColor=none;top=0;left=0;bottom=0;right=0;pointerEvents=1;" vertex="1" parent="VQXqekZz1te2qqjNtkpb-14">
          <mxGeometry x="524" width="277" height="40" as="geometry">
            <mxRectangle width="277" height="40" as="alternateBounds" />
          </mxGeometry>
        </mxCell>
        <mxCell id="VQXqekZz1te2qqjNtkpb-19" value="&lt;span style=&quot;color: rgb(10, 3, 0); font-size: 14px; background-color: rgb(255, 255, 255);&quot;&gt;да&lt;/span&gt;" style="shape=partialRectangle;html=1;whiteSpace=wrap;connectable=0;strokeColor=inherit;overflow=hidden;fillColor=none;top=0;left=0;bottom=0;right=0;pointerEvents=1;" vertex="1" parent="VQXqekZz1te2qqjNtkpb-14">
          <mxGeometry x="801" width="139" height="40" as="geometry">
            <mxRectangle width="139" height="40" as="alternateBounds" />
          </mxGeometry>
        </mxCell>
        <mxCell id="VQXqekZz1te2qqjNtkpb-26" style="shape=tableRow;horizontal=0;startSize=0;swimlaneHead=0;swimlaneBody=0;strokeColor=inherit;top=0;left=0;bottom=0;right=0;collapsible=0;dropTarget=0;fillColor=none;points=[[0,0.5],[1,0.5]];portConstraint=eastwest;" vertex="1" parent="W7dTlUxyJdRYd5BLlbY7-32">
          <mxGeometry y="360" width="940" height="40" as="geometry" />
        </mxCell>
        <mxCell id="VQXqekZz1te2qqjNtkpb-27" value="&lt;span style=&quot;font-size: 14.4px; text-align: left; white-space-collapse: break-spaces; background-color: rgb(255, 255, 255);&quot;&gt;&lt;font face=&quot;Helvetica&quot; color=&quot;#0a0300&quot; style=&quot;&quot;&gt;                                         quantity&lt;/font&gt;&lt;/span&gt;" style="shape=partialRectangle;html=1;whiteSpace=wrap;connectable=0;strokeColor=inherit;overflow=hidden;fillColor=none;top=0;left=0;bottom=0;right=0;pointerEvents=1;" vertex="1" parent="VQXqekZz1te2qqjNtkpb-26">
          <mxGeometry width="327" height="40" as="geometry">
            <mxRectangle width="327" height="40" as="alternateBounds" />
          </mxGeometry>
        </mxCell>
        <mxCell id="VQXqekZz1te2qqjNtkpb-28" value="&lt;span style=&quot;color: rgb(10, 3, 0); font-size: 14px; text-align: left; white-space-collapse: break-spaces; background-color: rgb(255, 255, 255);&quot;&gt;body&lt;/span&gt;" style="shape=partialRectangle;html=1;whiteSpace=wrap;connectable=0;strokeColor=inherit;overflow=hidden;fillColor=none;top=0;left=0;bottom=0;right=0;pointerEvents=1;" vertex="1" parent="VQXqekZz1te2qqjNtkpb-26">
          <mxGeometry x="327" width="118" height="40" as="geometry">
            <mxRectangle width="118" height="40" as="alternateBounds" />
          </mxGeometry>
        </mxCell>
        <mxCell id="VQXqekZz1te2qqjNtkpb-29" value="&lt;span style=&quot;color: rgb(10, 3, 0); font-size: 14px; text-align: left; white-space-collapse: break-spaces; background-color: rgb(255, 255, 255);&quot;&gt;integer&lt;/span&gt;" style="shape=partialRectangle;html=1;whiteSpace=wrap;connectable=0;strokeColor=inherit;overflow=hidden;fillColor=none;top=0;left=0;bottom=0;right=0;pointerEvents=1;" vertex="1" parent="VQXqekZz1te2qqjNtkpb-26">
          <mxGeometry x="445" width="79" height="40" as="geometry">
            <mxRectangle width="79" height="40" as="alternateBounds" />
          </mxGeometry>
        </mxCell>
        <mxCell id="VQXqekZz1te2qqjNtkpb-30" value="&lt;span style=&quot;color: rgb(10, 3, 0); font-size: 14px; text-align: left; white-space-collapse: break-spaces; background-color: rgb(255, 255, 255);&quot;&gt;Количество товара в заказе&lt;/span&gt;" style="shape=partialRectangle;html=1;whiteSpace=wrap;connectable=0;strokeColor=inherit;overflow=hidden;fillColor=none;top=0;left=0;bottom=0;right=0;pointerEvents=1;" vertex="1" parent="VQXqekZz1te2qqjNtkpb-26">
          <mxGeometry x="524" width="277" height="40" as="geometry">
            <mxRectangle width="277" height="40" as="alternateBounds" />
          </mxGeometry>
        </mxCell>
        <mxCell id="VQXqekZz1te2qqjNtkpb-31" value="&lt;span style=&quot;color: rgb(10, 3, 0); font-size: 14px; background-color: rgb(255, 255, 255);&quot;&gt;да&lt;/span&gt;" style="shape=partialRectangle;html=1;whiteSpace=wrap;connectable=0;strokeColor=inherit;overflow=hidden;fillColor=none;top=0;left=0;bottom=0;right=0;pointerEvents=1;" vertex="1" parent="VQXqekZz1te2qqjNtkpb-26">
          <mxGeometry x="801" width="139" height="40" as="geometry">
            <mxRectangle width="139" height="40" as="alternateBounds" />
          </mxGeometry>
        </mxCell>
        <mxCell id="VQXqekZz1te2qqjNtkpb-32" style="shape=tableRow;horizontal=0;startSize=0;swimlaneHead=0;swimlaneBody=0;strokeColor=inherit;top=0;left=0;bottom=0;right=0;collapsible=0;dropTarget=0;fillColor=none;points=[[0,0.5],[1,0.5]];portConstraint=eastwest;" vertex="1" parent="W7dTlUxyJdRYd5BLlbY7-32">
          <mxGeometry y="400" width="940" height="40" as="geometry" />
        </mxCell>
        <mxCell id="VQXqekZz1te2qqjNtkpb-33" value="&lt;span style=&quot;text-align: left; white-space-collapse: break-spaces; background-color: rgb(255, 255, 255);&quot;&gt;&lt;font face=&quot;Helvetica&quot; color=&quot;#0a0300&quot; style=&quot;font-size: 14px;&quot;&gt;                                     price&lt;/font&gt;&lt;/span&gt;" style="shape=partialRectangle;html=1;whiteSpace=wrap;connectable=0;strokeColor=inherit;overflow=hidden;fillColor=none;top=0;left=0;bottom=0;right=0;pointerEvents=1;" vertex="1" parent="VQXqekZz1te2qqjNtkpb-32">
          <mxGeometry width="327" height="40" as="geometry">
            <mxRectangle width="327" height="40" as="alternateBounds" />
          </mxGeometry>
        </mxCell>
        <mxCell id="VQXqekZz1te2qqjNtkpb-34" value="&lt;span style=&quot;color: rgb(10, 3, 0); font-size: 14px; text-align: left; white-space-collapse: break-spaces; background-color: rgb(255, 255, 255);&quot;&gt;body&lt;/span&gt;" style="shape=partialRectangle;html=1;whiteSpace=wrap;connectable=0;strokeColor=inherit;overflow=hidden;fillColor=none;top=0;left=0;bottom=0;right=0;pointerEvents=1;" vertex="1" parent="VQXqekZz1te2qqjNtkpb-32">
          <mxGeometry x="327" width="118" height="40" as="geometry">
            <mxRectangle width="118" height="40" as="alternateBounds" />
          </mxGeometry>
        </mxCell>
        <mxCell id="VQXqekZz1te2qqjNtkpb-35" value="&lt;font color=&quot;#0a0300&quot; style=&quot;font-size: 14px; background-color: rgb(255, 255, 255);&quot;&gt;number&lt;/font&gt;" style="shape=partialRectangle;html=1;whiteSpace=wrap;connectable=0;strokeColor=inherit;overflow=hidden;fillColor=none;top=0;left=0;bottom=0;right=0;pointerEvents=1;" vertex="1" parent="VQXqekZz1te2qqjNtkpb-32">
          <mxGeometry x="445" width="79" height="40" as="geometry">
            <mxRectangle width="79" height="40" as="alternateBounds" />
          </mxGeometry>
        </mxCell>
        <mxCell id="VQXqekZz1te2qqjNtkpb-36" value="&lt;span style=&quot;color: rgb(10, 3, 0); font-size: 14px; text-align: left; white-space-collapse: break-spaces; background-color: rgb(255, 255, 255);&quot;&gt;Цена товара&lt;/span&gt;" style="shape=partialRectangle;html=1;whiteSpace=wrap;connectable=0;strokeColor=inherit;overflow=hidden;fillColor=none;top=0;left=0;bottom=0;right=0;pointerEvents=1;" vertex="1" parent="VQXqekZz1te2qqjNtkpb-32">
          <mxGeometry x="524" width="277" height="40" as="geometry">
            <mxRectangle width="277" height="40" as="alternateBounds" />
          </mxGeometry>
        </mxCell>
        <mxCell id="VQXqekZz1te2qqjNtkpb-37" value="&lt;span style=&quot;color: rgb(10, 3, 0); font-size: 14px; background-color: rgb(255, 255, 255);&quot;&gt;да&lt;/span&gt;" style="shape=partialRectangle;html=1;whiteSpace=wrap;connectable=0;strokeColor=inherit;overflow=hidden;fillColor=none;top=0;left=0;bottom=0;right=0;pointerEvents=1;" vertex="1" parent="VQXqekZz1te2qqjNtkpb-32">
          <mxGeometry x="801" width="139" height="40" as="geometry">
            <mxRectangle width="139" height="40" as="alternateBounds" />
          </mxGeometry>
        </mxCell>
        <mxCell id="VQXqekZz1te2qqjNtkpb-40" value="" style="endArrow=none;html=1;rounded=0;exitX=0.063;exitY=0.975;exitDx=0;exitDy=0;exitPerimeter=0;" edge="1" parent="W7dTlUxyJdRYd5BLlbY7-32" source="VQXqekZz1te2qqjNtkpb-32">
          <mxGeometry width="50" height="50" relative="1" as="geometry">
            <mxPoint x="50" y="405" as="sourcePoint" />
            <mxPoint x="60" y="80" as="targetPoint" />
          </mxGeometry>
        </mxCell>
        <mxCell id="VQXqekZz1te2qqjNtkpb-42" value="" style="endArrow=none;html=1;rounded=0;exitX=0.136;exitY=1.015;exitDx=0;exitDy=0;exitPerimeter=0;entryX=0.138;entryY=-0.045;entryDx=0;entryDy=0;entryPerimeter=0;" edge="1" parent="W7dTlUxyJdRYd5BLlbY7-32" source="VQXqekZz1te2qqjNtkpb-32" target="W7dTlUxyJdRYd5BLlbY7-53">
          <mxGeometry width="50" height="50" relative="1" as="geometry">
            <mxPoint x="360" y="225" as="sourcePoint" />
            <mxPoint x="113" y="165" as="targetPoint" />
          </mxGeometry>
        </mxCell>
        <mxCell id="VQXqekZz1te2qqjNtkpb-43" value="" style="endArrow=none;html=1;rounded=0;entryX=0.224;entryY=1.04;entryDx=0;entryDy=0;entryPerimeter=0;exitX=0.225;exitY=0.92;exitDx=0;exitDy=0;exitPerimeter=0;" edge="1" parent="W7dTlUxyJdRYd5BLlbY7-32" source="VQXqekZz1te2qqjNtkpb-32" target="ChWrKj1eKKSMWkOD3-sH-7">
          <mxGeometry width="50" height="50" relative="1" as="geometry">
            <mxPoint x="360" y="225" as="sourcePoint" />
            <mxPoint x="410" y="175" as="targetPoint" />
          </mxGeometry>
        </mxCell>
      </root>
    </mxGraphModel>
  </diagram>
</mxfile>
